
<svg width="1296" height="250" fill="none" xmlns="http://www.w3.org/2000/svg"><path d="M283.063-155.083c-8.731-34.385-78.933-43.563-160.194-54.13-20.102-2.596-40.877-5.327-61.024-8.506-89.14-14.059-170.715-58.83-249.603-102.08-39.533-21.759-79.873-43.876-121.197-62.098v3.447c40.742 17.909 80.589 39.892 119.675 61.293 79.112 43.428 161.178 88.29 250.722 102.438 20.192 3.178 41.011 5.909 61.114 8.551 76.783 10.029 149.358 19.52 157.552 51.846 6.357 25.161-26.416 63.352-100.2 116.72C76.083 37.256-10.64 72.134-93.647 72.134a302.97 302.97 0 01-139.196-34.788 533.27 533.27 0 01-76.112-49.563v3.94a526.768 526.768 0 0074.903 48.354A305.88 305.88 0 00-93.647 75.223c83.678 0 171.162-35.056 275.257-110.363 76.022-54.89 108.258-93.036 101.453-119.943z" fill="#fff" fill-opacity=".05"/><path d="M-213.457-.129c34.027 17.461 62.949 25.565 90.977 25.565 29.37 0 55.472-8.954 85.693-19.028C-19.64.632-.21-5.95 21.863-11.501a111.93 111.93 0 0127.267-3.134c4.477 0 8.372 0 12.312.358 3.94.358 7.298.269 10.835.269 17.909 0 32.549-4.477 48.353-25.654a121.837 121.837 0 0018.133-35.236c5.283-14.685 9.447-26.281 32.639-42.891a110.8 110.8 0 0122.833-10.835c13.432-5.238 24.714-9.76 25.207-17.371.358-6.179-6.85-13.119-22.699-21.715-18.984-10.342-46.115-11.73-70.158-11.73-10.7 0-21.938.314-32.818.672-10.88.358-22.385.627-33.086.627a209.656 209.656 0 01-54.8-5.552c-77.904-21.043-150.971-61.338-215.398-96.573-33.847-18.491-66.665-36.4-99.438-51.98v2.507c32.415 15.312 64.874 33.086 98.498 51.443 64.561 35.414 137.718 75.53 215.89 96.797a214.32 214.32 0 0055.382 5.462c10.88 0 22.386-.314 33.132-.627 10.745-.313 22.117-.672 32.772-.672 23.774 0 50.503 1.344 69.083 11.417 14.596 7.97 21.849 14.551 21.536 19.655-.403 6.223-11.775 10.656-23.819 15.402a112.797 112.797 0 00-23.416 11.192c-23.774 16.969-28.251 29.46-33.444 43.922a121.293 121.293 0 01-17.909 34.832C103.483-20.32 89.604-16.202 72.187-16.202c-3.492 0-6.984 0-10.745-.268-3.76-.27-8.014-.224-12.223-.224-9.38-.085-18.735.998-27.848 3.223C-.746-7.919-20.222-1.338-37.414 4.438c-30.042 10.118-55.965 18.894-85.066 18.894-27.669 0-56.234-8.06-89.947-25.296-30.803-15.94-58.517-37.116-85.335-57.264l-11.193-8.461v2.82l9.85 7.432c26.863 20.371 54.666 41.459 85.648 57.308zm375.77 348.415a40.567 40.567 0 00-29.728-19.431 48.893 48.893 0 01-21.804-8.954l-.672-.806c-22.834-25.565-99.393-108.93-125.361-108.93a8.418 8.418 0 00-7.074 3.223c-3.447 4.478-3.268 13.432.537 27.804 2.284 8.462 23.953 20.058 46.921 32.415C44.25 283.859 64.04 294.47 70.755 302.44c6 7.118 13.924 17.013 13.431 20.46 0 .941-1.209 1.478-2.955 2.328-4.03 2.015-10.073 5.015-6.85 19.163a101.271 101.271 0 0014.148 28.833 99.78 99.78 0 0112.67 25.027c5.731 22.028-30.355 62.457-54.218 89.186-7.88 8.954-14.685 16.476-19.028 22.386a612.289 612.289 0 01-59.994 65.098c-40.788 40.295-82.963 81.753-97.782 139.106-22.431 85.604-26.908 161.313-13.476 224.889 7.163 33.937 31.877 81.264 55.83 81.264 14.91 0 25.789-17.91 32.28-53.282 25.073-136.24 93.484-181.549 159.612-225.381 58.606-38.817 113.944-75.485 137.763-170.715 8.954-35.818-4.835-91.2-22.789-121.779a96.291 96.291 0 00-27.848-28.744 87.57 87.57 0 01-22.923-22.386c-4.477-6.939-3.627-15.043-2.821-23.639.806-8.597 1.925-18.178-3.492-25.968zm3.806 51.174a88.549 88.549 0 0023.684 23.281 94.028 94.028 0 0126.863 27.849c17.64 30.041 31.34 84.26 22.386 119.451-23.505 94.021-78.351 130.42-136.465 168.879-66.441 44.19-135.39 89.902-160.82 227.396-6.089 33.176-16.207 50.724-29.191 50.724-20.371 0-45.085-42.352-52.786-78.751-13.432-63.084-8.955-138.345 13.118-223.591 14.596-56.546 56.457-97.781 96.931-137.673a610.615 610.615 0 0060.397-65.411c4.253-5.642 11.014-13.432 18.85-21.983 25.788-28.878 61.068-68.457 54.934-92.051a100.721 100.721 0 00-13.073-25.923 99.581 99.581 0 01-13.745-27.893c-2.642-11.73 1.522-13.79 5.193-15.625 2.015-.985 4.12-2.06 4.478-4.478.716-3.268-1.388-8.282-13.88-23.102-7.074-8.417-27.131-19.207-46.518-29.594-20.37-10.924-43.428-23.326-45.354-30.445-4.477-16.207-3-22.386-1.074-25.072a5.334 5.334 0 014.477-2.015c19.565 0 76.38 55.741 123.033 107.9l.94.985a52.751 52.751 0 0023.192 9.716 37.508 37.508 0 0127.848 17.909c4.477 6.85 3.94 15.043 3.089 23.729-.85 8.685-1.477 17.908 3.493 26.012v-.224z" fill="#fff" fill-opacity=".05"/><path d="M-308.955 57.67c150.971 85.426 313.671 221.353 343.31 288.913 17.909 40.564-25.34 89.052-79.917 150.434-61.92 69.754-139.286 156.567-144.076 260.84-5.865 126.928-68.814 179.088-119.317 194.847v3.313c51.667-15.759 116.407-68.59 122.451-198.07 4.746-102.975 81.574-189.43 143.27-258.826C12.104 436.888 55.8 387.729 37.355 345.33 7.358 277.277-156.731 140.006-308.955 54.313v3.358zm906.942 957.94c59.413-6.76 123.123-75.576 123.929-133.869 1.253-89.543-50.1-160.775-99.797-229.814-8.462-11.685-17.192-23.818-25.43-35.817l-4.925-7.164c-23.416-33.668-49.921-71.634-58.517-113.093-7.298-34.967-18.446-116.407-6.313-144.434 8.955-20.55 34.251-32.325 58.741-43.742 16.924-7.835 32.952-15.267 44.19-25.475l.492-.448c38.415-34.832 38.415-34.832 64.606-35.817 7.925-.269 17.909-.583 31.698-1.926a233.649 233.649 0 0037.743-6.447 54.228 54.228 0 0112.133-2.149c8.059 0 14.82 5.686 37.161 24.625 66.038 55.92 64.785 153.164 63.576 247.23-1.522 118.332-3.089 240.738 130.866 279.465a201.976 201.976 0 0055.74 8.373c50.37 0 93.22-22.386 123.98-65.054 45.13-62.412 57.12-159.88 29.86-242.484-63-190.638-213.52-299.658-375.458-403.528-147.12-94.424-287.3-120.437-407.11-137.405a179.076 179.076 0 00-24.535-1.836c-48.577 0-71.635 24.714-100.915 55.965a509.311 509.311 0 01-37.161 37.026c-16.476 14.462-37.429 24.4-57.666 33.982-33.042 15.626-64.248 30.355-77.142 63.173-27.356 69.62 39.847 123.839 99.17 171.7 27.445 22.386 53.368 43.115 68.545 64.024 60.263 82.917 42.22 222.74-12.402 301.314-17.058 24.49-49.741 54.846-84.305 86.947-57.308 53.189-122.272 113.497-133.733 164.133-5.418 23.864-3.985 40.295 4.477 50.861 6.94 8.686 18.625 12.895 35.817 12.895 28.162 0 68.501-11.596 111.169-23.909 52.159-14.998 111.302-32.011 161.716-32.011a144.693 144.693 0 0160.844 11.461 262.1 262.1 0 0151.801 33.982c26.281 20.416 51.085 39.716 86.186 39.716 3.662.03 7.323-.12 10.969-.45zm-148.329-75.128a147.025 147.025 0 00-61.785-11.641c-50.771 0-110.049 17.058-162.342 32.101-42.534 12.268-82.694 23.819-110.542 23.819-16.342 0-27.445-3.94-33.937-12.044-7.835-9.849-8.955-25.833-3.895-48.935 11.327-50.01 76.112-110.049 133.106-163.014 34.654-32.191 67.427-62.681 84.619-87.35 55.069-79.157 73.202-220.188 12.402-303.911-15.357-21.133-41.414-42.175-68.993-64.427-58.696-47.369-125.362-101.05-98.498-169.148 12.58-31.967 43.383-46.562 76.112-61.964 20.416-9.67 41.503-19.61 58.203-34.295a522.082 522.082 0 0037.295-37.16c28.878-30.893 51.711-55.294 99.304-55.294 8.107.026 16.202.64 24.221 1.836C554.514-34.022 694.605-8.054 841.188 86.1c161.532 103.648 311.742 212.4 374.472 402.365 27.09 81.933 15.22 178.595-29.51 240.47-30.31 41.951-72.57 64.113-122.18 64.113a199.398 199.398 0 01-55.2-8.327c-59.369-17.193-96.887-52.428-114.796-107.766-15.984-49.607-15.223-110.587-14.461-169.551 1.208-94.558 2.462-192.519-64.382-248.931-31.967-27.087-32.818-27.49-51.264-22.924a230.505 230.505 0 01-37.385 6.403c-13.879 1.298-23.684 1.612-31.564 1.88-26.863.94-26.863.94-66.038 36.31l-.537.448c-10.969 9.939-26.864 17.327-43.608 25.117-24.893 11.551-50.637 23.55-59.86 44.772-12.357 28.609-1.164 110.541 6.178 145.732 8.686 41.683 35.325 80.052 58.875 113.944l4.925 7.119c8.238 11.954 16.969 24.087 25.431 35.817 49.249 68.725 100.647 139.823 99.393 228.337-.806 57.352-63.486 125.002-121.958 131.672-3.658.41-7.334.62-11.014.63-34.34 0-58.875-19.029-84.798-39.222-16.028-12.177-32.594-25.072-52.249-34.026zM1544.82-375.181h-33.22c-30.53 0-54.8 1.656-81.62 9.805a247.085 247.085 0 00-39.8 17.371c-21.22 10.79-41.23 20.998-65.19 20.998-4 .008-7.99-.276-11.95-.851-17.69-2.552-30.94-12.984-43.74-23.057-14.38-11.327-27.94-22.028-47.01-22.028-1.77.001-3.53.091-5.29.269-11.73 1.209-30.58 11.775-48.75 22.027a254.859 254.859 0 01-30.63 15.671c-8.55 3.142-17.3 5.73-26.19 7.745-18.85 4.477-21.22 6.134-30.35 40.787a415.798 415.798 0 00-6.14 27.177c-6.58 32.146-11.77 57.352-46.02 81.395-23.15 16.342-52.476 24.266-89.547 24.266s-75.441-7.701-109.467-14.551c-17.909-3.537-34.609-6.894-47.056-8.238-7.253-.761-18.446-1.253-29.907-1.253-32.863 0-71.366 12.043-74.053 29.325-1.298 8.149 5.104 20.461 42.802 32.505l4.164 1.343C869.439-68.45 969.594-8.321 1071.54 92.953c28.07 27.937 49.56 40.966 67.56 40.966 4.19-.001 8.35-.76 12.27-2.239 19.11-7.118 33.04-31.34 49.25-59.188 8.32-14.417 17.91-30.758 28.96-46.518a407.762 407.762 0 01218.49-156.701 270.753 270.753 0 0174.14-10.969c77.32 0 131.9 37.877 183.57 76.828v-2.82c-51.58-38.818-106.16-76.113-183.57-76.113a273.65 273.65 0 00-74.95 11.148 410.06 410.06 0 00-219.69 157.687c-11.24 15.804-20.73 32.19-29.06 46.652-15.94 27.58-29.68 51.398-48.04 58.203a33.51 33.51 0 01-11.5 2.06c-17.38 0-38.33-12.805-66-40.295C970.758-9.888 870.379-70.15 726.438-116.31l-4.209-1.343c-28.206-8.954-42.891-19.7-41.279-29.997 2.238-14.372 36.489-27.445 71.859-27.445 11.372 0 22.385.492 29.639 1.253 12.401 1.299 29.146 4.478 46.876 8.238 34.116 6.671 72.799 14.596 109.914 14.596 37.116 0 67.472-8.059 90.972-24.669 34.97-24.759 40.3-50.503 46.93-83.142 1.79-8.641 3.58-17.55 6.13-26.863 8.95-34.519 10.92-34.966 28.65-39.22a208.877 208.877 0 0026.46-7.79 249.935 249.935 0 0030.94-15.849c17.19-9.626 36.62-20.551 47.91-21.715 1.68-.177 3.37-.267 5.06-.268 18.26 0 31.56 10.476 45.66 21.535 13.03 10.253 26.46 20.864 44.77 23.505 4.08.586 8.2.885 12.32.896 24.49 0 45.66-10.79 66.17-21.222a244.227 244.227 0 0139.49-17.237c26.5-8.059 50.64-9.716 80.95-9.716h33.22a270.4 270.4 0 0174.81 9.76 568.162 568.162 0 0186.1 33.266v-2.507a571.526 571.526 0 00-85.52-33.087 271.719 271.719 0 00-75.44-9.849z" fill="#fff" fill-opacity=".05"/><path d="M1544.82-330.098c-37.65 0-77.72 6.85-120.17 14.103-47.77 8.148-97.2 16.565-149.8 16.565h-11.2a274.855 274.855 0 01-47.41-6.089 168.658 168.658 0 00-31.83-4.477c-23.24 0-40.3 12.268-59.01 42.265a284.943 284.943 0 00-21.94 48.532c-11.24 29.595-22.83 60.174-48.53 78.306-8.96 6.268-25.75 11.104-43.65 16.208-31.344 8.954-66.803 19.073-71.639 40.294-5.999 26.46 48.399 62.68 77.639 82.201 5.46 3.627 10.16 6.76 13.43 8.955 34.25 25.162 62.68 41.906 89.54 41.906 3.65.004 7.29-.31 10.88-.94 21.54-3.895 41.06-19.073 61.47-47.861a453.807 453.807 0 01242.89-174.118 316.1 316.1 0 0186.72-12.581c77.23 0 134.32 31.341 183.57 65.949v-1.656c-49.25-34.654-106.34-65.636-183.57-65.636-29.51.22-58.85 4.56-87.17 12.895A454.877 454.877 0 001191.39-.667c-20.19 28.475-39.44 43.473-60.57 47.279-3.52.627-7.09.942-10.66.94-26.59 0-54.75-16.655-88.83-41.638-3.09-2.283-7.79-5.417-13.43-8.954-28.965-19.297-82.915-55.204-77.095-80.813 4.478-20.372 39.713-30.356 70.655-39.176 17.9-5.148 35.05-10.029 44.05-16.386 26.01-18.357 37.7-49.249 49.03-78.978a286.593 286.593 0 0121.8-48.264c18.4-29.549 35.19-41.637 57.89-41.637 10.64.501 21.21 2 31.56 4.477a273.228 273.228 0 0047.69 6.133h11.19c52.74 0 102.21-8.417 150.07-16.61 42.36-7.208 82.34-14.058 119.9-14.058a225.795 225.795 0 0162.68 8.059 578.695 578.695 0 0198.5 40.294v-1.522a572.36 572.36 0 00-97.96-39.847 226.535 226.535 0 00-63.04-8.73zm100.25 1285.893a51.207 51.207 0 0026.32 5.686 120.916 120.916 0 0034.39-5.462v-3.314a116.874 116.874 0 01-34.39 5.642 48.704 48.704 0 01-24.62-5.194c-26.28-16.789-37.92-46.473-50.24-77.858-10.61-27.087-21.58-55.114-42.93-74.858v-.941h-.94c-24.49-21.625-57.53-32.146-100.96-32.146-42.36 0-86.91 10.163-122.68 18.357-24.49 5.551-45.58 10.387-59.19 10.387-7.97 0-12.85-1.657-14.86-5.015-2.64-4.477-.63-12.939 6-25.072 30.94-56.457 93.39-191.131 89.09-246.872-3.4-43.966-24.53-89.543-44.99-133.33-29.64-63.532-60.22-129.391-38.06-192.071 25.43-71.635 137.41-199.817 217.1-210.697 4.94-.645 9.93-.959 14.91-.94 51.8 0 127.64 30.893 206.67 75.62v-3.358c-79.07-44.772-154.82-75.396-206.67-75.396a111.16 111.16 0 00-15.36.985c-80.59 11.014-193.95 140.36-219.6 212.711-22.7 64.024 8.19 130.376 38.05 194.578 20.33 43.653 41.33 88.828 44.78 132.212 3.85 49.696-50.64 175.684-88.7 245.17-7.43 13.432-9.31 22.386-5.95 28.161 2.64 4.478 8.37 6.537 17.55 6.537 13.97 0 35.23-4.835 59.86-10.476 35.82-8.149 80.01-18.267 122-18.267 42.89 0 75.4 10.387 99.35 31.788 21.13 19.296 32.06 47.144 42.62 74.142 12.49 31.833 24.31 61.964 51.45 79.291zM428.347 330.198c3.85 0 6.895-5.462 9.939-17.64 11.238-45.712 48.354-106.199 105.975-138.39 58.204-32.549 97.245-41.011 118.108-45.533 10.387-2.239 15.581-3.403 16.835-6.134a4.082 4.082 0 00-.448-3.716c-4.03-7.342-76.112-47.771-180.251-56.188l-4.478-.359c-9.357-.76-17.461-1.432-25.206-1.432-27.087 0-48.981 7.61-100.02 50.726-8.059 6.805-16.297 13.118-24.267 19.207-24.669 18.939-45.98 35.28-44.772 53.726 1.075 14.238 15.133 28.386 44.369 44.459 32.325 17.909 52.025 53.189 65.054 76.56 8.551 14.909 14.013 24.714 19.162 24.714zm-83.32-102.349c-28.386-15.67-42.668-29.863-43.653-43.384-1.343-17.908 19.7-33.981 44.056-52.651 8.014-6.134 16.252-12.447 24.356-19.297 50.681-42.802 72.351-50.368 99.124-50.368 7.701 0 15.76.671 25.117 1.432l4.478.359c101.542 8.193 175.326 48.488 179.087 55.472.806 1.433.627 2.149.447 2.552-.984 2.104-6.581 3.313-15.894 5.373-20.953 4.477-59.994 13.028-118.466 45.667-58.472 32.638-95.364 93.26-106.691 139.195-2.731 11.238-5.552 16.656-8.596 16.656-4.477 0-10.253-10.567-17.909-23.909-12.939-23.55-32.773-59.098-65.456-77.097z" fill="#fff" fill-opacity=".05"/><path d="M436.809 407.07c3.895 0 6.582-4.477 8.462-14.685 11.641-61.651 36.802-148.956 120.884-195.519a385.03 385.03 0 0189.812-34.877 79.347 79.347 0 0021.535-11.686c9.268-6.223 18.894-12.715 27.759-12.715a17.05 17.05 0 013 .269 28.52 28.52 0 0112.536 6.626 21.305 21.305 0 0013.118 6.089 17.01 17.01 0 006.178-1.298 16.743 16.743 0 007.656-7.253 12.129 12.129 0 0112.76-7.074c7.567.626 11.641 6.402 15.939 12.491a35.546 35.546 0 0010.566 11.148 32.541 32.541 0 0014.193 3.716 8.952 8.952 0 007.566-2.82 8.426 8.426 0 00.672-7.522c-2.91-10.566-25.565-20.416-40.519-26.863-4.477-1.925-8.282-3.582-10.7-4.88-22.386-11.82-44.772-21.849-63.397-30.087-79.336-34.698-151.642-55.875-221.083-64.74a166.599 166.599 0 00-20.73-1.477c-34.205 0-60.71 14.953-113.451 64.023-12.939 12.044-26.281 22.386-39.131 32.37-28.878 22.386-51.667 40.071-51.129 62.323.447 17.595 15.715 36.31 47.995 58.919 52.025 36.4 86.589 91.693 109.422 128.272 14.104 22.386 23.327 37.25 30.087 37.25zM298.016 240.25c-31.967-22.386-47.01-40.698-47.458-57.8-.492-21.58 22.028-39.086 50.592-61.248 12.895-10.029 26.237-20.371 39.221-32.46 52.472-48.801 78.753-63.665 112.556-63.665 6.874.06 13.738.553 20.55 1.477 69.307 8.954 141.524 29.997 220.725 64.65 18.804 8.239 41.011 18.223 63.308 29.998 2.462 1.343 6.312 2.999 10.79 4.925 14.73 6.447 37.026 16.162 39.757 26.102a7.105 7.105 0 01.527 3.231 7.101 7.101 0 01-.975 3.126 8.23 8.23 0 01-6.492 2.284 31.08 31.08 0 01-13.431-3.582 33.679 33.679 0 01-10.119-10.701c-4.477-6.089-8.954-12.357-16.923-13.073a13.427 13.427 0 00-14.014 7.701 15.495 15.495 0 01-7.029 6.716 15.19 15.19 0 01-5.686 1.164 20.239 20.239 0 01-12.312-5.776 29.332 29.332 0 00-12.85-6.761 15.435 15.435 0 00-3.223-.313c-9.313 0-19.073 6.582-28.52 12.939a76.811 76.811 0 01-21.088 11.506 389.874 389.874 0 00-90.17 34.967c-84.708 46.876-110.049 134.584-121.735 196.459-1.701 9.178-4.029 13.432-7.118 13.432-6.045 0-15.67-15.447-29.013-36.803-22.878-36.489-57.666-91.916-109.87-128.495z" fill="#fff" fill-opacity=".05"/><path d="M602.196 968.823a96.165 96.165 0 0073.515-53.726c12.805-26.549 19.745-71.635-20.013-135.345-17.058-27.355-35.817-55.024-53.726-81.753-51.487-76.426-100.11-148.643-120.212-221.084-22.699-81.932-4.477-149.537 57.397-212.71 53.726-54.712 124.376-86.097 194.265-86.097 52.518 0 99.394 18.491 131.943 52.025 35.817 36.892 53.726 90.797 51.711 155.985-.448 15.133-1.164 30.758-1.925 47.279-2.731 58.83-5.776 125.361 3.716 180.968 10.924 63.8 36.847 102.975 79.201 120.481a171.32 171.32 0 0063.982 14.058c17.28.19 34.35-3.832 49.74-11.719a106.512 106.512 0 0038.55-33.545c37.2-50.368 46.11-136.599 22.16-214.591-51.35-167.357-174.611-267.288-357.324-374.248C676.383 33.541 559.394 8.468 453.464-6.531a160.19 160.19 0 00-22.386-1.7c-44.19 0-65.277 22.385-91.916 51.039-10.253 10.969-20.819 22.386-33.938 33.848a267.963 267.963 0 01-39.936 28.519c-18.67 11.506-34.788 21.401-52.517 47.906-35.191 52.607 11.909 85.066 61.74 119.048 26.371 17.909 53.726 36.713 68.188 58.83 91.692 138.793 54.711 287.122-10.522 379.486-18.625 26.371-45.846 51.309-74.679 77.724-35.236 32.281-71.635 65.636-92.499 102.975-8.954 16.029-11.506 26.864-7.79 33.266 2.731 4.477 8.954 6.939 18.401 6.939 17.192 0 44.503-7.118 76.112-15.401 44.369-11.551 99.573-25.968 148.374-25.968a158.974 158.974 0 0165.859 12.268 240.441 240.441 0 0147.369 31.071c23.908 18.626 46.518 36.221 78.485 36.221a88.65 88.65 0 0010.387-.717zm-135.569-67.695a158.145 158.145 0 00-66.397-12.357c-48.98 0-104.273 14.417-148.732 26.013-31.564 8.238-58.785 15.357-75.798 15.357-8.955 0-14.775-2.06-17.237-6.269-3.493-5.909-.941-16.341 7.79-31.922 20.729-37.071 57.084-70.381 92.275-102.572 28.877-26.46 56.143-51.443 74.858-77.948a354.139 354.139 0 0065.053-178.774c5.104-71.635-13.431-139.732-54.711-202.458-14.73-22.386-42.085-41.056-68.545-59.188-49.249-33.803-95.857-65.68-61.383-117.213 17.596-26.236 33.579-36.086 52.07-47.458a265.675 265.675 0 0040.295-28.699 460.446 460.446 0 0034.071-33.937c26.415-28.25 47.324-50.592 90.932-50.592a157.73 157.73 0 0122.162 1.702C559.125 9.766 676.069 34.839 814.504 115.965 996.77 222.746 1120.03 322.497 1171.29 489.407c23.82 77.634 15 163.417-21.98 213.427a105.086 105.086 0 01-87.22 44.772 169.393 169.393 0 01-63.395-13.835c-41.906-17.058-67.56-56.143-78.395-119.451-9.492-55.338-6.447-121.913-3.716-180.654.761-16.566 1.477-32.191 1.925-47.369 1.97-65.501-16.028-119.764-52.07-156.925-32.817-33.803-80.007-52.428-132.927-52.428-70.247 0-141.39 31.341-195.205 86.5-32.863 33.578-53.189 68.187-62.054 105.885-7.925 33.668-6.537 69.038 4.477 108.124 20.147 72.664 68.814 144.926 120.391 221.486 17.909 26.863 36.624 54.353 53.727 81.709 39.444 63.262 32.594 107.81 19.923 134.046a94.96 94.96 0 01-72.441 52.876 97.16 97.16 0 01-10.118.582c-31.34 0-53.726-17.461-77.679-35.818a240.811 240.811 0 00-47.906-31.206zM1544.82-298.757c-35.01 0-73.83 6.626-114.88 13.432-49.25 8.372-99.8 17.013-155.09 17.013h-11.91l-9.76-.269c-8.37 0-16.25-.447-23.87-.447-47.63 0-77.09 9.715-96.57 60.934-12.27 32.37-26.19 69.038-59.63 92.678-9.45 6.715-18.9 12.446-27.27 17.46-19.34 11.686-34.61 20.91-35.19 33.67-.49 11.73 11.33 25.832 38.46 45.711 25.97 19.073 47.37 28.34 65.37 28.34h4.83c26.15-2.417 43.7-24.042 65.9-51.397a508.23 508.23 0 0134.93-39.937 480.972 480.972 0 01206.62-122.63 345.694 345.694 0 0195.45-13.969c76.11 0 134.94 27.535 183.57 59.413v-1.612c-48.63-31.743-107.46-59.144-183.57-59.144-32.44.213-64.69 4.96-95.81 14.103A482.702 482.702 0 001219.2-82.42a500.106 500.106 0 00-35.02 40.026c-22.02 27.132-39.39 48.533-65 50.906h-4.7c-17.69 0-38.82-8.954-64.61-28.072-26.86-19.61-38.37-33.355-37.88-44.772.54-11.999 15.58-21.087 34.57-32.549 8.37-5.059 17.91-10.79 27.35-17.506 33.76-23.908 47.73-60.8 60.09-93.349 19.16-50.144 48.3-59.681 95.31-59.681 7.62 0 15.5.224 23.82.448l9.76.269h11.96c55.38 0 106.2-8.686 155.31-17.058 41.01-6.985 79.74-13.432 114.66-13.432 18.25-.23 36.43 2.075 54.04 6.85 34.7 9.85 70.25 26.102 106.92 45.309v-1.522c-36.54-18.894-71.95-35.012-106.56-44.772a195.794 195.794 0 00-54.4-7.432z" fill="#fff" fill-opacity=".05"/><path d="M938.388 489.228c-5.194 84.574 11.013 151.329 45.533 188.042 17.909 19.028 39.579 29.057 62.679 29.057 44.33 0 81.84-35.818 93.44-89.23 17.06-78.709 2.37-156.209-43.61-230.307-46.61-75.082-111.077-123.659-145.372-145.911-17.461-11.327-24.938-16.028-27.803-12.626-2.866 3.403-.806 11.014 2.238 27.222 6.716 35.011 20.551 108.124 12.895 233.753zm-14.059-260.079a2.023 2.023 0 011.612-.672c3.627 0 11.462 5.104 24.445 13.432C1064.64 316.096 1174.25 453.5 1138.74 616.738c-11.42 52.742-48.44 88.156-92.09 88.156-22.79 0-44.15-9.894-61.744-28.609-34.296-36.444-50.324-102.975-45.175-187.057 7.656-125.674-6.179-198.921-12.85-234.067-2.82-14.864-4.611-23.818-2.552-26.147v.135zm-501.176-20.955c12.671 0 21.76-12.223 31.341-30.579 17.013-32.057 52.428-47.548 71.635-55.875 9.626-4.254 13.431-5.821 12.76-8.462-.672-2.642-2.866-3.179-16.029-4.074-39.668-2.687-128.674 35.145-138.792 63.62a14.64 14.64 0 005.104 17.327c15.267 12.626 25.475 17.909 34.161 17.909l-.18.134zm-36.309-34.295c9.357-26.013 92.095-61.696 131.763-61.696h3.985c4.25.096 8.48.621 12.625 1.567a103.551 103.551 0 01-10.387 4.97c-19.431 8.462-55.517 24.266-72.978 57.308-11.014 20.774-19.073 28.878-28.699 28.878-7.879 0-17.505-5.194-32.19-17.327a11.503 11.503 0 01-4.119-13.7z" fill="#fff" fill-opacity=".05"/><path d="M462.105 206.582c30.49-55.562 86.23-74.948 131.36-85.648 4.478-1.03 4.746-3.224 4.478-4.477-1.03-8.955-43.295-26.371-106.378-26.371-7.119 0-14.417.224-21.67.671-28.788 1.747-96.752 41.952-121.197 71.635-6.358 7.701-9.223 14.148-8.552 19.073 1.702 12.357 12.716 17.909 25.431 24.177 13.431 6.716 28.788 14.327 36.22 32.101 4.477 10.298 10.029 15.536 16.879 15.536 11.82.09 26.371-15.625 43.429-46.697zm-58.203 30.355c-7.746-18.49-23.416-26.281-37.251-33.175-12.178-6.089-22.699-11.328-24.221-22.386-.582-4.254 2.194-10.298 8.059-17.417 24.132-29.415 91.2-69.172 119.63-70.873a346.638 346.638 0 0121.491-.672c62.008 0 103.333 17.148 104.184 24.401 0 1.164-1.747 1.791-2.911 2.059-45.577 10.79-101.855 30.4-132.793 86.723-25.833 46.697-44.951 58.024-56.144 31.34h-.044zm938.508 490.968c3.18 4.478 11.01 6.582 26.1 6.582 9.4 0 20.69-.761 33.71-1.657 16.12-1.074 34.43-2.283 53.33-2.283 59.9 0 100.24 12.715 127.15 40.295 25.03 19.252 38.86 50.637 51.04 78.306 14.77 33.668 27.58 62.68 55.83 62.68 3.16-.011 6.31-.341 9.4-.985 2.3-.477 4.57-1.075 6.81-1.791v-2.328a76.073 76.073 0 01-7.26 1.925c-2.94.607-5.94.922-8.95.941-26.86 0-39.31-28.431-53.73-61.383-12.31-27.937-26.23-59.591-51.57-79.111-27.27-27.759-68.15-40.698-128.68-40.698-18.98 0-37.29 1.209-53.46 2.328-13.02.851-24.22 1.612-33.57 1.612-13.93 0-21.63-1.791-24.27-5.641a8.945 8.945 0 01-1.11-4.321c0-1.511.38-2.997 1.11-4.32 28.52-76.112 52.34-172.551 50.05-202.235-4.03-51.98-26.86-101.094-48.98-148.553-26.86-58.203-52.56-112.959-36.35-158.716 22.38-63.576 125.36-173.938 181.32-181.55 2.97-.378 5.97-.557 8.96-.537 43.43 0 119.94 31.072 206.67 82.515v-2.597c-86.64-51.219-163.11-82.156-206.67-82.156-3.09-.026-6.17.169-9.22.582-56.42 7.656-160.38 118.914-183.12 183.027-16.52 46.607 9.18 101.856 36.4 160.373 22.03 47.279 44.77 96.214 48.8 147.747 2.01 26.012-19.34 119.585-49.88 201.473a11.28 11.28 0 00-1.24 5.255c.03 1.827.5 3.62 1.38 5.221z" fill="#fff" fill-opacity=".05"/><path d="M593.645 1074.44c66.665-7.57 146.045-86.768 167.312-147.299 36.981-105.125-28.699-189.743-92.23-271.542-61.338-79.022-119.227-153.612-91.066-244.454 24.535-79.112 103.781-121.824 165.88-121.824 33.489 0 62.412 11.865 81.529 33.445 22.699 25.609 31.609 64.516 25.789 112.511-20.013 164.895-25.968 345.281 157.861 398.47a222.148 222.148 0 0061.92 9.178c77.37 0 126.8-44.369 154.6-81.53 53.32-71.321 71.86-178.012 46.07-265.497-21.85-74.142-64.87-146.045-131.45-219.829-99.03-109.691-233.842-204.026-412.213-288.33l-7.701-3.672c-75.038-35.46-152.627-72.172-234.336-92.409-4.835-1.209-10.208-2.642-15.939-4.164-25.251-6.671-56.636-15.043-83.589-15.043a82.976 82.976 0 00-27.758 4.119c-11.641 4.164-18.177 12.133-24.535 19.834a66.42 66.42 0 01-16.61 15.939 175.757 175.757 0 01-22.7 9.804c-15.088 5.82-30.713 11.865-35.817 17.64-9.537 11.194-6.94 17.91-4.477 24.446a20.237 20.237 0 011.298 15.67l-1.746 5.194c-13.432 39.891-13.432 39.891-44.772 48.935-6.044 1.746-13.431 3.895-22.386 6.76-25.744 8.194-36.31 20.82-46.518 33.042a89.545 89.545 0 01-29.28 25.43h-1.254c-16.118 0-138.345 8.06-147.747 38.102-2.552 8.103 2.955 16.923 16.342 26.146a62.678 62.678 0 0037.518 12.939c3.94 0 7.477-.358 10.925-.671a80.543 80.543 0 018.372-.582c9.85 0 19.79 2.82 33.445 36.399 3.358 8.283 5.954 15.088 8.103 20.685 10.566 27.669 10.88 28.027 37.743 39.489 6.671 2.865 14.954 6.402 25.475 11.237 34.564 15.939 41.638 34.072 50.592 56.995a205.955 205.955 0 0020.282 41.235 297.53 297.53 0 0035.817 42.667c21.894 22.789 42.578 44.324 49.249 80.276 11.417 62.278-22.386 121.735-60.621 176.715-18.535 26.639-56.636 57.71-96.975 90.573C69.814 827.21-7.82 890.428-8.089 949.034c0 33.445 8.417 59.096 25.52 76.116 18.625 18.71 46.921 27.84 86.544 27.84 57.398 0 128.003-19.38 190.28-36.48 49.249-13.44 91.335-25.032 118.422-25.032a53.722 53.722 0 0115.401 1.835c26.102 7.747 46.832 24.307 66.845 40.297 26.549 21.26 51.666 41.32 87.529 41.32 3.737.06 7.475-.11 11.193-.49zm-164.671-83.768a56.494 56.494 0 00-16.297-1.97c-27.49 0-70.023 11.638-119.272 25.158-62.099 17.02-132.435 36.31-189.43 36.36-38.727 0-66.307-8.96-84.35-26.86-16.476-16.57-24.759-41.464-24.58-74.057.448-57.129 77.276-120.123 145.24-175.461 40.295-32.997 78.754-64.158 97.513-91.2 38.638-55.562 72.754-115.691 61.158-179.088-6.76-36.847-27.758-58.696-49.965-81.843a298.503 298.503 0 01-35.817-42.219 205.213 205.213 0 01-19.969-40.698c-9.223-23.55-16.476-42.175-52.204-58.651-10.566-4.88-18.848-8.417-25.519-11.283-25.879-11.058-25.879-11.058-36.087-37.742a1108.312 1108.312 0 00-8.103-20.73c-13.029-32.056-23.192-38.369-36.355-38.369a85.782 85.782 0 00-8.686.582c-3.358.313-6.85.672-10.61.672a59.556 59.556 0 01-35.818-12.357c-12.088-8.417-17.192-16.029-15.133-22.655 8.193-26.102 122.093-35.817 144.747-35.817h1.12l.358-1.433.671 1.343a92.042 92.042 0 0030.759-26.46c10.387-12.447 20.192-24.132 45.085-32.102 8.954-2.82 16.386-4.97 22.386-6.715 32.549-9.402 32.952-9.895 46.921-50.95l1.791-5.194a23.253 23.253 0 00-1.388-17.909c-2.373-6.178-4.478-11.506 3.85-21.266 4.477-5.194 20.371-11.373 34.43-16.79a180.194 180.194 0 0023.236-10.029 70.087 70.087 0 0017.551-16.7c6.357-7.745 12.357-14.998 23.147-18.893a80.573 80.573 0 0126.863-3.94c26.549 0 57.711 8.283 82.783 14.954 5.731 1.522 11.103 2.954 15.983 4.163 81.396 20.148 158.851 56.77 233.754 92.23l7.701 3.627c177.968 84.17 312.512 178.236 411.232 287.569 66.26 73.471 109.06 144.971 130.78 218.666 25.52 86.588 7.16 192.116-45.58 262.721-27.4 36.623-76.11 80.276-152.23 80.276a219.457 219.457 0 01-61.07-8.955c-181.321-52.428-175.456-231.381-155.622-395.156 5.955-48.891-3.224-88.648-26.55-114.929-19.699-22.386-49.473-34.519-83.857-34.519-63.218 0-143.897 43.473-168.88 124.063-28.654 92.364 32.46 171.117 91.603 247.229 62.994 81.172 128.137 165.119 91.738 268.631-20.998 59.726-99.125 137.804-164.716 145.284-3.597.41-7.214.62-10.834.63-34.788 0-59.457-19.75-85.559-40.66-20.282-16.11-41.235-32.858-67.919-40.558z" fill="#fff" fill-opacity=".05"/><path d="M1002.86-214.586c-15.179 10.746-35.818 15.939-63.532 15.939-32.415 0-68.635-7.253-100.603-13.431-18.804-3.761-36.623-7.343-51.129-8.955a486.398 486.398 0 00-49.786-2.552c-43.608 0-99.573 5.91-118.332 34.072-8.193 12.267-8.507 27.624-1.03 45.756 3.537 8.462 12.671 13.119 21.491 17.551a51.22 51.22 0 0118.177 12.491 85.081 85.081 0 0110.253 24.267c3.626 11.685 7.342 23.729 15.804 30.847a53.726 53.726 0 0036.31 12.94 156.431 156.431 0 0029.773-3.94 153.217 153.217 0 0129.326-3.896 51.977 51.977 0 0124.624 5.642c17.909 8.954 25.296 21.49 32.55 33.444 9.446 15.58 18.356 30.266 47.726 37.16 61.517 14.373 78.351 29.416 119.048 65.726 5.24 4.477 10.88 9.715 17.06 15.133a249.687 249.687 0 0135.82 41.727 283.918 283.918 0 0031.34 37.743 138.897 138.897 0 0043.6 27.579c18.54 8.462 36.05 16.431 51.94 43.697l2.51 4.478c20.01 34.564 40.29 66.575 52.65 66.575.97.012 1.93-.19 2.81-.593a6.532 6.532 0 002.29-1.735c4.48-4.88 5.69-17.908 3.72-39.847-1.17-12.804-10.43-24.311-19.43-35.414-9.67-11.954-18.81-23.237-18.27-35.818.67-14.998 9.72-22.386 19.3-30.131a60.327 60.327 0 0018.53-20.774c10.21-21.983 12.67-41.638 15.09-60.666 3.31-26.505 6.45-51.488 30.13-79.784a343.856 343.856 0 01167.58-107.72c20.12-6.05 41-9.215 62.01-9.403 67.16 0 115.16 36.49 166.11 75.083l17.46 13.163v-3.985c-5.24-3.895-10.44-7.835-15.58-11.73-51.36-38.952-99.89-75.71-167.99-75.71a225.457 225.457 0 00-62.68 9.447 346.608 346.608 0 00-169.06 108.706c-24.31 28.968-27.49 54.443-30.89 81.396-2.37 18.804-4.79 38.235-14.77 59.725a57.582 57.582 0 01-17.69 19.655c-9.67 7.925-19.74 16.073-20.46 32.46-.58 13.655 9.36 25.967 18.98 37.832 8.69 10.745 17.64 21.849 18.72 33.758 2.33 25.744-.27 34.564-2.87 37.429-.35.407-.78.734-1.27.958-.48.224-1.01.34-1.55.34-12.35 0-38.68-45.532-49.96-65.008l-2.47-4.477c-16.38-28.162-34.38-36.31-53.36-44.996a137.399 137.399 0 01-42.76-26.863 285.645 285.645 0 01-31.07-37.34 252.48 252.48 0 00-36.36-42.264c-6.18-5.373-11.82-10.432-17.06-15.088-41.14-36.714-58.199-51.891-120.431-66.442-28.117-6.581-36.668-20.774-45.757-35.817-7.477-12.313-15.178-25.073-33.803-34.654a55.74 55.74 0 00-26.057-5.955 158.3 158.3 0 00-29.952 3.94 151.873 151.873 0 01-29.147 3.896 50.548 50.548 0 01-34.295-12.223c-7.746-6.537-11.372-17.909-14.82-29.326a85.98 85.98 0 00-10.745-25.206 52.297 52.297 0 00-19.296-13.432c-8.955-4.477-16.924-8.551-20.013-15.983-7.074-17.103-6.851-31.341.716-42.802 17.909-26.863 72.888-32.684 115.735-32.684a483.05 483.05 0 0149.249 2.508c14.417 1.567 32.146 5.104 50.906 8.954 32.101 6.402 68.456 13.7 101.184 13.7 28.206 0 49.607-5.372 65.326-16.521 39.17-27.669 27.93-69.441 17.1-109.87-11.64-43.16-23.641-87.797 24.62-116.899a44.304 44.304 0 0122.97-5.283c28.88 0 69.53 15.805 108.84 31.072 34.25 13.431 66.58 25.833 87.62 26.326h8.95c45.22 0 90.94-7.791 135.13-15.357 44.19-7.567 89.76-15.312 134.85-15.312a313.434 313.434 0 0186.99 11.461 573.894 573.894 0 0174.28 27.446v-3.448a577.37 577.37 0 00-73.12-26.863 316.2 316.2 0 00-87.84-11.596c-45.35 0-91.11 7.835-135.34 15.357-44.24 7.522-89.55 15.312-134.63 15.312h-8.96c-20.5-.493-52.6-12.939-86.54-26.147-39.62-15.357-80.59-31.34-110-31.34a46.53 46.53 0 00-24.58 5.731c-50.283 30.355-37.97 76.112-26.06 120.391 11.01 41.145 21.44 80.052-15.85 106.467z" fill="#fff" fill-opacity=".05"/></svg>